#!OML:ASF C:\ViconDB\ViconDB\414\Spring2016\041811\Spring2016.ASF
:FULLY-SPECIFIED
:DEGREES
365
root 9.85419 18.016 -42.9173 -181.19 -4.59922 -179.677
lowerback 0.00944969 -1.38225 -2.07603
upperback 1.23343 -1.86398 1.22069
thorax 1.36583 -0.972104 2.39147
lowerneck -11.2311 -2.40501 -8.65123
upperneck 23.1344 -6.15372 12.3565
head 9.77506 -2.91502 4.99499
rclavicle 2.44443e-014 -5.96354e-015
rhumerus -52.3063 -27.3432 -72.9888
rradius 30.133
rwrist 46.5403
rhand -33.4746 -13.3162
rfingers 7.12502
rthumb -6.6724 -43.1911
lclavicle 2.44443e-014 -5.96354e-015
lhumerus -29.7078 -4.89421 89.2787
lradius 31.0552
lwrist -31.2008
lhand -31.0489 14.846
lfingers 7.12502
lthumb -4.3304 44.7817
rfemur 189.801 53.0641 -146.865
rtibia 27.6624
rfoot -64.1301 -49.6427
rtoes 8.11041e-014
lfemur 12.5422 -3.69555 -19.391
ltibia 24.4272
lfoot -16.8489 -3.62465
ltoes 9.54166e-014
366
root 9.87848 18.0313 -43.1071 -181.187 -4.35599 -179.535
lowerback -0.081104 -1.35919 -1.95523
upperback 1.19898 -1.83463 1.3185
thorax 1.37895 -0.956854 2.42279
lowerneck -11.2308 -2.38151 -8.63821
upperneck 23.1508 -6.15096 12.4159
head 9.78177 -2.91073 5.01462
rclavicle 1.46976e-014 -2.08724e-014
rhumerus -51.8758 -27.0563 -73.1617
rradius 29.7039
rwrist 46.932
rhand -33.3562 -13.128
rfingers 7.12502
rthumb -6.55809 -43.0065
lclavicle 1.46976e-014 -2.08724e-014
lhumerus -30.2704 -3.6832 89.13
lradius 30.2758
lwrist -31.3518
lhand -31.0377 14.9422
lfingers 7.12502
lthumb -4.31952 44.8782
rfemur 187.755 52.0612 -148.065
rtibia 28.424
rfoot -63.4018 -49.8757
rtoes 5.48646e-014
lfemur 12.0372 -3.23155 -18.8725
ltibia 26.1046
lfoot -15.4404 -4.14864
ltoes 9.54166e-015
367
root 9.90064 18.0458 -43.2968 -181.217 -3.92661 -179.574
lowerback -0.108484 -1.23408 -1.94699
upperback 1.16227 -1.66797 1.37191
thorax 1.3485 -0.873032 2.47559
lowerneck -11.6145 -2.59425 -8.8604
upperneck 23.5691 -6.50944 12.5377
head 10.0625 -3.08246 5.06102
rclavicle 1.13618e-014 -7.55382e-015
rhumerus -51.708 -26.9421 -73.1196
rradius 29.7278
rwrist 47.1419
rhand -33.2529 -13.2549
rfingers 7.12502
rthumb -6.45837 -43.1364
lclavicle 1.13618e-014 -7.55382e-015
lhumerus -30.8677 -2.25559 88.9188
lradius 29.385
lwrist -32.1728
lhand -31.0259 14.8712
lfingers 7.12502
lthumb -4.30818 44.8074
rfemur 185.745 51.2997 -149.317
rtibia 29.1621
rfoot -62.4403 -50.6099
rtoes -6.04305e-014
lfemur 11.4638 -2.48627 -18.492
ltibia 28.0183
lfoot -13.883 -4.79268
ltoes 1.27222e-013
368
root 9.92854 18.063 -43.4808 -181.232 -3.69185 -179.57
lowerback -0.0768913 -1.15504 -1.93415
upperback 1.11204 -1.56347 1.41822
thorax 1.27415 -0.819482 2.51899
lowerneck -11.5749 -2.5234 -8.86786
upperneck 23.6117 -6.41782 12.5338
head 10.0577 -3.04471 5.07412
rclavicle 1.95306e-014 -5.76476e-015
rhumerus -51.4483 -26.8904 -73.1249
rradius 29.6041
rwrist 47.6508
rhand -33.4439 -13.3733
rfingers 7.12502
rthumb -6.64272 -43.2491
lclavicle 1.95306e-014 -5.76476e-015
lhumerus -31.4894 -0.842303 88.6702
lradius 28.598
lwrist -32.9548
lhand -30.7191 14.8847
lfingers 7.12502
lthumb -4.01191 44.8267
rfemur 184.051 50.9676 -150.212
rtibia 29.8788
rfoot -62.0348 -50.9852
rtoes 3.18055e-015
lfemur 10.654 -1.69436 -17.9151
ltibia 30.1138
lfoot -11.9338 -5.56579
ltoes 1.04958e-013
369
root 9.95468 18.0834 -43.6622 -181.248 -3.47419 -179.431
lowerback -0.0327201 -1.07544 -1.74921
upperback 1.06262 -1.46015 1.45962
thorax 1.1889 -0.76496 2.46064
lowerneck -11.4905 -2.53772 -8.90002
upperneck 23.5211 -6.46758 12.6696
head 10.0208 -3.06261 5.1209
rclavicle 1.90305e-014 -8.74653e-015
rhumerus -51.1475 -26.8585 -73.2109
rradius 29.5051
rwrist 48.2225
rhand -33.3364 -13.3583
rfingers 7.12502
rthumb -6.53893 -43.2373
lclavicle 1.90305e-014 -8.74653e-015
lhumerus -32.1758 0.0265002 88.51
lradius 27.9327
lwrist -33.2707
lhand -30.3948 15.603
lfingers 7.12502
lthumb -3.69874 45.5506
rfemur 182.639 50.9891 -150.695
rtibia 30.4998
rfoot -62.1313 -51.0383
rtoes 1.43125e-013
lfemur 9.64553 -1.00247 -17.2194
ltibia 32.4644
lfoot -9.82069 -6.09655
ltoes -6.36111e-015
370
root 9.97999 18.1034 -43.8421 -181.222 -3.26833 -179.371
lowerback -0.122499 -1.03434 -1.70751
upperback 1.08264 -1.40675 1.51792
thorax 1.25727 -0.739794 2.49584
lowerneck -11.7108 -2.51715 -8.67971
upperneck 23.6929 -6.41197 12.3914
head 10.1025 -3.03374 4.99056
rclavicle -8.57259e-016 1.19271e-015
rhumerus -50.5328 -26.4598 -73.6698
rradius 29.445
rwrist 48.0793
rhand -33.2556 -13.3292
rfingers 7.12502
rthumb -6.46097 -43.2106
lclavicle -8.57259e-016 1.19271e-015
lhumerus -32.7662 1.101 88.2159
lradius 27.4051
lwrist -34.3027
lhand -29.9006 16.1505
lfingers 7.12502
lthumb -3.2215 46.1059
rfemur 181.58 51.5965 -150.914
rtibia 31.0223
rfoot -62.9903 -50.857
rtoes -1.74931e-014
lfemur 8.36842 -0.149156 -16.5761
ltibia 35.0243
lfoot -7.53725 -6.4803
ltoes -2.13097e-013
371
root 10.008 18.1188 -44.0169 -181.185 -3.14167 -179.102
lowerback -0.404447 -0.868929 -1.43615
upperback 1.27717 -1.19856 1.70835
thorax 1.60179 -0.643307 2.53567
lowerneck -11.8526 -2.61097 -8.8696
upperneck 23.4416 -6.38181 12.3503
head 10.0421 -3.01121 5.0082
rclavicle 4.47266e-015 -1.03368e-014
rhumerus -49.7171 -26.4549 -73.843
rradius 29.4922
rwrist 48.0649
rhand -33.2487 -13.3633
rfingers 7.12502
rthumb -6.45435 -43.245
lclavicle 4.47266e-015 -1.03368e-014
lhumerus -32.9585 1.95959 88.2843
lradius 26.484
lwrist -34.1929
lhand -30.3026 15.3031
lfingers 7.12502
lthumb -3.60973 45.2523
rfemur 180.905 52.9838 -150.521
rtibia 31.4145
rfoot -64.6487 -50.4703
rtoes -6.2816e-014
lfemur 6.92242 0.67087 -15.6764
ltibia 37.7576
lfoot -5.21312 -6.79511
ltoes 1.43125e-013
372
root 10.0344 18.134 -44.1886 -181.182 -3.03324 -178.827
lowerback -0.377347 -0.714451 -1.07426
upperback 1.32167 -1.0046 1.80669
thorax 1.61683 -0.545489 2.43712
lowerneck -12.0246 -2.77962 -9.24426
upperneck 23.4006 -6.59875 12.6787
head 10.1133 -3.10097 5.1657
rclavicle 8.19987e-015 -5.96354e-015
rhumerus -49.1092 -26.2861 -74.1918
rradius 29.6238
rwrist 47.8142
rhand -33.2906 -13.5318
rfingers 7.12502
rthumb -6.49481 -43.4122
lclavicle 8.19987e-015 -5.96354e-015
lhumerus -33.344 2.63431 88.2088
lradius 25.6811
lwrist -34.2106
lhand -30.1852 14.9657
lfingers 7.12502
lthumb -3.49635 44.9168
rfemur 180.281 54.5991 -150.112
rtibia 31.7207
rfoot -66.3523 -50.1927
rtoes 2.29e-013
lfemur 5.47297 1.45882 -14.7356
ltibia 40.6003
lfoot -2.82795 -7.06365
ltoes -4.77083e-014
373
root 10.0559 18.1583 -44.3584 -181.102 -2.94309 -178.438
lowerback -0.381177 -0.606601 -0.574233
upperback 1.27853 -0.872017 1.88887
thorax 1.56156 -0.474694 2.24314
lowerneck -11.9054 -2.90404 -9.59284
upperneck 23.21 -6.81677 13.1442
head 10.0793 -3.19387 5.36568
rclavicle 4.5969e-016 -2.38542e-015
rhumerus -48.5791 -25.9739 -74.6433
rradius 29.7995
rwrist 47.5758
rhand -33.2172 -13.5518
rfingers 7.12502
rthumb -6.42388 -43.4344
lclavicle 4.5969e-016 -2.38542e-015
lhumerus -33.893 3.06925 88.0443
lradius 24.9609
lwrist -34.372
lhand -30.0823 14.9569
lfingers 7.12502
lthumb -3.39698 44.9096
rfemur 179.928 56.2096 -149.471
rtibia 31.891
rfoot -68.3016 -49.5652
rtoes 3.73715e-014
lfemur 3.84803 2.02955 -13.8137
ltibia 43.5085
lfoot -0.625652 -6.97021
ltoes 2.06736e-013
374
root 10.0759 18.1754 -44.5221 -181.109 -2.86253 -178.076
lowerback -0.275952 -0.531743 -0.0986335
upperback 1.29023 -0.784256 1.95338
thorax 1.50512 -0.427911 2.04471
lowerneck -12.0459 -2.95487 -9.63357
upperneck 23.2046 -6.90749 13.2957
head 10.125 -3.21819 5.41615
rclavicle -9.31803e-015 2.46493e-014
rhumerus -47.9096 -25.3915 -75.3479
rradius 30.0714
rwrist 46.9715
rhand -32.9888 -13.4263
rfingers 7.12502
rthumb -6.20341 -43.3155
lclavicle -9.31803e-015 2.46493e-014
lhumerus -34.4525 3.30154 87.9709
lradius 24.4229
lwrist -34.3442
lhand -29.8111 15.1941
lfingers 7.12502
lthumb -3.13505 45.1508
rfemur 179.571 58.167 -148.867
rtibia 31.9977
rfoot -70.6925 -48.8869
rtoes -2.14687e-014
lfemur 2.22358 2.6885 -12.916
ltibia 46.4075
lfoot 1.45469 -6.832
ltoes -5.725e-014
375
root 10.0959 18.1975 -44.6815 -181.116 -2.80504 -177.621
lowerback -0.210542 -0.458253 0.395272
upperback 1.34392 -0.704491 2.09388
thorax 1.5166 -0.387953 1.91327
lowerneck -12.118 -2.84629 -9.36574
upperneck 23.1283 -6.68495 13.0244
head 10.0631 -3.10312 5.29621
rclavicle 1.49089e-016 -8.34896e-015
rhumerus -47.0546 -24.5569 -76.2123
rradius 30.333
rwrist 45.9075
rhand -33.0458 -13.4072
rfingers 7.12502
rthumb -6.25847 -43.2947
lclavicle 1.49089e-016 -8.34896e-015
lhumerus -34.8219 3.74767 87.8124
lradius 23.7917
lwrist -34.6773
lhand -29.4464 15.0546
lfingers 7.12502
lthumb -2.78281 45.0161
rfemur 179.211 59.7388 -148.307
rtibia 32.0114
rfoot -72.5404 -47.9858
rtoes 7.31528e-014
lfemur 0.59493 3.21916 -11.9544
ltibia 49.2462
lfoot 3.05836 -6.53586
ltoes -6.99722e-014
376
root 10.1118 18.2115 -44.8371 -181.193 -2.66635 -177.256
lowerback -0.103028 -0.325787 0.824997
upperback 1.45329 -0.546352 2.2125
thorax 1.56113 -0.30998 1.79674
lowerneck -12.3227 -2.93241 -9.22127
upperneck 23.1729 -6.72304 12.7256
head 10.1097 -3.11855 5.15654
rclavicle 7.66563e-015 3.57812e-015
rhumerus -46.2258 -23.8126 -76.954
rradius 30.7103
rwrist 44.9753
rhand -33.3148 -13.6308
rfingers 7.12502
rthumb -6.51814 -43.5105
lclavicle 7.66563e-015 3.57812e-015
lhumerus -35.045 4.01411 87.7742
lradius 23.1225
lwrist -35.2628
lhand -28.8636 15.1499
lfingers 7.12502
lthumb -2.22002 45.1181
rfemur 178.585 61.0619 -148.142
rtibia 32.0065
rfoot -74.1321 -47.3759
rtoes 7.4743e-014
lfemur -0.967744 3.85079 -11.1287
ltibia 51.9741
lfoot 3.66607 -6.07286
ltoes -8.90555e-014
377
root 10.1257 18.226 -44.9897 -181.282 -2.57456 -176.855
lowerback 0.0488634 -0.220995 1.36612
upperback 1.55423 -0.422656 2.26972
thorax 1.57344 -0.24656 1.55428
lowerneck -12.4376 -2.9891 -9.38686
upperneck 23.0872 -6.83045 13.0556
head 10.1342 -3.14408 5.29055
rclavicle 5.76476e-015 1.19271e-015
rhumerus -45.4028 -23.0495 -77.7739
rradius 31.0792
rwrist 44.2055
rhand -33.3493 -13.7684
rfingers 7.12502
rthumb -6.55141 -43.6471
lclavicle 5.76476e-015 1.19271e-015
lhumerus -35.3283 4.14046 87.6774
lradius 22.5712
lwrist -35.6416
lhand -28.715 15.1039
lfingers 7.12502
lthumb -2.07645 45.0735
rfemur 177.86 62.2895 -148.099
rtibia 31.9717
rfoot -75.5075 -46.6617
rtoes 1.90833e-014
lfemur -2.48597 4.44653 -10.2835
ltibia 54.5019
lfoot 2.80824 -5.58649
ltoes -1.01778e-013
